# xmcd CD database file generated by freedbAccess_ocx
#
# Track frame offsets:
#       183
#       18183
#       32408
#       51483
#       71358
#       87408
#       98320
#       121858
#       137883
#       151558
#       172608
#       191008
#       201433
#       215608
#       229458
#       250883
#       271158
#       286158
#       305908
#       315733
#
# Disc length: 4557 seconds
#
# Revision: 0
# Processed by: cddbd v1.4PL0 Copyright (c) Steve Scherf et al.
# Submitted via: CDnGo 2.00
#
DISCID=1111cb14
DTITLE=Coro Alpino Orobica - Canti Di Montagna
DYEAR=1900
DGENRE=Vocal
TTITLE0=La Paganella
TTITLE1=Stelutis Alpinis
TTITLE2=Valcamonica
TTITLE3=La Preghiera Dell' Alpino
TTITLE4=La Montanara
TTITLE5=Belle Rose Du Printempts
TTITLE6=La Pastora E Il Lupo
TTITLE7=Il Testamento Del Capitano
TTITLE8=Monte Canino
TTITLE9=Alpini In Libia
TTITLE10=L'Aqua Ze Morta
TTITLE11=Preghiera Trentina
TTITLE12=Le Voci Di Nikolajewka
TTITLE13=Susanna Al Ballo
TTITLE14=Aria Della Suite N.3
TTITLE15=L'Ultima Notte
TTITLE16=La Madonina
TTITLE17=Signore Delle Cime
TTITLE18=Balla Marietta
TTITLE19=Joska, La Rossa
EXTD=
EXTT0=
EXTT1=
EXTT2=
EXTT3=
EXTT4=
EXTT5=
EXTT6=
EXTT7=
EXTT8=
EXTT9=
EXTT10=
EXTT11=
EXTT12=
EXTT13=
EXTT14=
EXTT15=
EXTT16=
EXTT17=
EXTT18=
EXTT19=
PLAYORDER=
